<svg width="70" height="70" viewBox="0 0 70 70" fill="none" xmlns="http://www.w3.org/2000/svg">
<g filter="url(#filter0_d_51_26)">
<path d="M47.444 9.37858C38.3854 4.12167 27.2357 5.06799 19.1432 11.7248C13.9987 15.9572 11.013 21.437 10.1797 28.0639C10.1224 28.5279 10.0599 28.9933 10 29.4573V32.5857C10.1224 33.4837 10.2148 34.3884 10.3737 35.2812C11.5039 41.6148 14.6211 46.7714 19.6745 50.7392C23.6003 53.8232 28.082 55.5281 33.0625 55.9244C33.189 55.9413 33.3143 55.9666 33.4375 56H36.5625C37.4935 55.8696 38.431 55.7849 39.3542 55.6089C46.3763 54.3055 51.8841 50.6557 55.8672 44.751C58.2669 41.1912 59.5898 37.2365 59.9193 32.9532C59.9373 32.8259 59.9643 32.7 60 32.5765V29.4482C59.8763 28.5501 59.7891 27.6429 59.6237 26.7526C58.2031 19.1234 54.1536 13.2682 47.444 9.37858ZM26.7305 41.7921C20.8281 41.8116 16.0352 37.0057 16.0091 31.041C16.0019 29.6303 16.2724 28.232 16.8051 26.926C17.3378 25.6199 18.1223 24.4317 19.1138 23.4293C20.1053 22.4268 21.2844 21.6297 22.5837 21.0834C23.8829 20.5372 25.277 20.2525 26.6862 20.2457C32.5833 20.2118 37.4128 25.0307 37.4375 30.972C37.4462 32.3868 37.176 33.7894 36.6423 35.0995C36.1085 36.4096 35.3218 37.6013 34.3272 38.6065C33.3325 39.6117 32.1495 40.4104 30.8459 40.9571C29.5423 41.5037 28.1438 41.7875 26.7305 41.7921ZM47.7839 37.8543C47.3451 38.7889 46.7799 39.6388 45.9779 40.31C44.6289 41.4415 43.069 41.4558 41.7122 40.3348C40.5586 39.3807 39.8646 38.1085 39.4102 36.7216C38.0833 32.6743 38.1081 28.64 39.6706 24.6514C40.1068 23.5356 40.7305 22.5267 41.6628 21.7446C43.0651 20.5715 44.6576 20.5715 46.0404 21.7798C47.1667 22.7614 47.8112 24.0492 48.293 25.4296C48.9045 27.2338 49.2035 29.1294 49.1771 31.0345C49.1654 33.4003 48.8021 35.6944 47.7839 37.8543ZM53.8737 33.8917C53.7552 35.4364 53.4362 36.9692 53.1589 38.4995C53.0609 38.9265 52.8895 39.3331 52.6523 39.7013C52.3281 40.2488 51.8333 40.2696 51.5768 39.7013C51.2174 38.8945 50.8737 38.0433 50.75 37.1778C50.4596 35.1418 50.3034 33.0862 50.0924 31.0384L50.2227 31.0228C50.2526 28.5358 50.3594 26.0552 51.0221 23.6373C51.1427 23.1996 51.3177 22.7788 51.543 22.3847C51.8932 21.7798 52.3646 21.7707 52.6758 22.3847C52.9765 22.976 53.2039 23.602 53.3529 24.2486C54.0573 27.4291 54.1211 30.6604 53.8802 33.8917H53.8737Z" fill="#039BE5"/>
<path d="M26.6848 20.2457C25.2756 20.2525 23.8815 20.5372 22.5823 21.0834C21.283 21.6297 20.1039 22.4268 19.1124 23.4293C18.1209 24.4318 17.3364 25.6199 16.8037 26.926C16.271 28.232 16.0005 29.6303 16.0077 31.041C16.0338 37.0057 20.8254 41.8117 26.7291 41.7921C28.1422 41.7873 29.5405 41.5035 30.8438 40.9569C32.1472 40.4102 33.33 39.6115 34.3245 38.6065C35.3189 37.6015 36.1056 36.4099 36.6393 35.1001C37.173 33.7903 37.4434 32.3879 37.4348 30.9733C37.4114 25.0307 32.5819 20.2118 26.6848 20.2457Z" fill="white"/>
<path d="M46.0405 21.7799C44.6577 20.5754 43.0652 20.5663 41.6629 21.7447C40.7306 22.5267 40.1069 23.5356 39.6707 24.6514C38.1082 28.6387 38.0835 32.6743 39.4103 36.7216C39.8647 38.1085 40.5587 39.3807 41.7124 40.3348C43.0691 41.4558 44.629 41.4415 45.978 40.3101C46.7801 39.6388 47.3452 38.7889 47.784 37.8543C48.7983 35.6945 49.1655 33.4003 49.1772 31.0358C49.2036 29.1307 48.9046 27.2351 48.2931 25.4309C47.8113 24.0492 47.1668 22.7614 46.0405 21.7799Z" fill="white"/>
<path d="M52.6732 22.382C52.362 21.7642 51.8919 21.7733 51.5404 22.382C51.3151 22.7761 51.1401 23.197 51.0195 23.6347C50.3568 26.0526 50.25 28.5331 50.2201 31.0202L50.0898 31.0358C50.3008 33.0836 50.457 35.1391 50.7474 37.1752C50.8711 38.0407 51.2148 38.8918 51.5742 39.6987C51.8346 40.2735 52.3255 40.2527 52.6497 39.6987C52.8869 39.3305 53.0583 38.9238 53.1563 38.4969C53.4336 36.9666 53.7526 35.4337 53.8711 33.8891C54.1185 30.6578 54.0547 27.4265 53.3503 24.2434C53.2011 23.5977 52.9737 22.9726 52.6732 22.382Z" fill="white"/>
</g>
<defs>
<filter id="filter0_d_51_26" x="0" y="-0.00109863" width="70" height="70.0011" filterUnits="userSpaceOnUse" color-interpolation-filters="sRGB">
<feFlood flood-opacity="0" result="BackgroundImageFix"/>
<feColorMatrix in="SourceAlpha" type="matrix" values="0 0 0 0 0 0 0 0 0 0 0 0 0 0 0 0 0 0 127 0" result="hardAlpha"/>
<feOffset dy="4"/>
<feGaussianBlur stdDeviation="5"/>
<feComposite in2="hardAlpha" operator="out"/>
<feColorMatrix type="matrix" values="0 0 0 0 0 0 0 0 0 0 0 0 0 0 0 0 0 0 0.15 0"/>
<feBlend mode="normal" in2="BackgroundImageFix" result="effect1_dropShadow_51_26"/>
<feBlend mode="normal" in="SourceGraphic" in2="effect1_dropShadow_51_26" result="shape"/>
</filter>
</defs>
</svg>
